<svg width="1381" height="92" viewBox="0 0 1381 92" fill="none" xmlns="http://www.w3.org/2000/svg">
<path d="M0 44.7495H87.7578L49.0206 1.48272H52.2397L92.0857 45.9821L52.2397 90.4816H49.0206L87.7578 47.2148H0V44.7495Z" fill="white"/>
<path d="M181.221 57.7367H154.734V90.4994H126.638V1.48272H154.734V32.7627H181.221V1.48272H209.317V90.4994H181.221V57.7367Z" fill="white"/>
<path d="M263.667 56.8792L229.633 1.48272H261.807L277.652 30.9049L293.498 1.48272H324.187L291.638 56.1289V90.4994H263.667V56.8792Z" fill="white"/>
<path d="M344.503 1.48272H385.852C408.994 1.48272 421.996 14.2198 421.996 33.1379C421.996 52.0559 408.994 64.668 385.852 64.668H372.599V90.4994H344.503V1.48272ZM383.491 41.1767C390.054 41.1767 394.132 39.9441 394.132 33.1379C394.132 26.3316 390.054 24.974 383.491 24.974H372.599V41.1767H383.491Z" fill="white"/>
<path d="M445.156 1.48272H517.068V26.4567H473.252V34.4955H513.724V57.7367H473.252V65.5254H517.068V90.4994H445.156V1.48272Z" fill="white"/>
<path d="M541.462 1.48272H586.888C610.155 1.48272 620.188 13.7196 620.188 29.047C620.188 38.6936 614.859 46.2322 606.936 51.4307C615.234 56.1289 618.203 62.56 619.437 70.5988L622.281 90.4994H593.684L591.216 72.814C589.982 65.1503 586.638 60.9522 579.949 60.9522H569.558V90.4994H541.462V1.48272ZM580.7 40.6765C587.263 40.6765 591.341 38.8186 591.341 31.9052C591.341 24.9918 587.263 23.259 580.7 23.259H569.558V40.6944H580.7V40.6765Z" fill="white"/>
<path d="M641.488 45.9821C641.488 20.3829 658.568 0 688.899 0C713.776 0 730.122 13.7196 733.216 32.6377H704.62C701.776 27.5643 696.822 23.8664 688.899 23.8664C675.29 23.8664 670.586 34.3705 670.586 46C670.586 57.6295 675.29 68.1336 688.899 68.1336C695.964 68.1336 701.025 65.2932 704.119 59.8447H685.179V38.7115H734.433V90.5173H715.493V75.9223C709.43 86.1763 699.165 92 683.069 92C658.568 92 641.488 71.5992 641.488 46.0179V45.9821Z" fill="white"/>
<path d="M760.204 1.48272H805.63C828.897 1.48272 838.93 13.7196 838.93 29.047C838.93 38.6936 833.6 46.2322 825.678 51.4307C833.976 56.1289 836.945 62.56 838.179 70.5988L841.022 90.4994H812.426L809.958 72.814C808.724 65.1503 805.379 60.9522 798.69 60.9522H788.3V90.4994H760.204V1.48272ZM799.442 40.6765C806.005 40.6765 810.083 38.8186 810.083 31.9052C810.083 24.9918 806.005 23.259 799.442 23.259H788.3V40.6944H799.442V40.6765Z" fill="white"/>
<path d="M860.212 45.9821C860.212 20.3829 877.292 0 907.623 0C937.955 0 954.909 20.4008 954.909 45.9821C954.909 71.5635 937.83 91.9643 907.623 91.9643C877.417 91.9643 860.212 71.5635 860.212 45.9821ZM907.623 67.6334C921.108 67.6334 925.811 57.6116 925.811 46C925.811 34.3883 921.108 24.3666 907.623 24.3666C894.138 24.3666 889.31 34.3883 889.31 46C889.31 57.6116 894.013 67.6334 907.623 67.6334Z" fill="white"/>
<path d="M976.96 55.7538V1.48272H1005.06V55.7538C1005.06 63.5425 1010.01 67.9907 1017.81 67.9907C1025.61 67.9907 1030.68 63.5425 1030.68 55.7538V1.48272H1058.66V55.7538C1058.66 79.9775 1040.34 91.9821 1017.81 91.9821C995.274 91.9821 976.96 79.9953 976.96 55.7538Z" fill="white"/>
<path d="M1125.74 1.48272C1148.88 1.48272 1161.88 14.2198 1161.88 33.1379C1161.88 52.0559 1148.88 64.668 1125.74 64.668H1112.49V90.4994H1084.39V1.48272H1125.74ZM1123.4 41.1767C1129.96 41.1767 1134.04 39.9441 1134.04 33.1379C1134.04 26.3316 1129.96 24.974 1123.4 24.974H1112.5V41.1767H1123.4Z" fill="white"/>
<path d="M1185.04 1.48272H1256.96V26.4567H1213.14V34.4955H1253.61V57.7367H1213.14V65.5254H1256.96V90.4994H1185.04V1.48272Z" fill="white"/>
<path d="M1293.24 47.2326L1331.98 90.4994H1328.76L1288.9 46L1328.76 1.50058H1331.98L1293.24 44.7674H1381V47.2326H1293.24Z" fill="white"/>
</svg>
